<?xml version="1.0" encoding="UTF-8" standalone="no"?>
<svg
   width="23"
   height="23"
   viewBox="0 0 23 23"
   fill="none"
   version="1.1"
   id="svg1"
   sodipodi:docname="calendar.svg"
   inkscape:version="1.3.2 (091e20e, 2023-11-25, custom)"
   xmlns:inkscape="http://www.inkscape.org/namespaces/inkscape"
   xmlns:sodipodi="http://sodipodi.sourceforge.net/DTD/sodipodi-0.dtd"
   xmlns="http://www.w3.org/2000/svg"
   xmlns:svg="http://www.w3.org/2000/svg">
  <defs
     id="defs1" />
  <sodipodi:namedview
     id="namedview1"
     pagecolor="#ffffff"
     bordercolor="#cccccc"
     borderopacity="1"
     inkscape:showpageshadow="0"
     inkscape:pageopacity="1"
     inkscape:pagecheckerboard="0"
     inkscape:deskcolor="#d1d1d1"
     inkscape:zoom="51.347826"
     inkscape:cx="11.490262"
     inkscape:cy="11.5"
     inkscape:window-width="3440"
     inkscape:window-height="1377"
     inkscape:window-x="-8"
     inkscape:window-y="-8"
     inkscape:window-maximized="1"
     inkscape:current-layer="svg1" />
  <path
     style="color:#000000;fill:#141743;stroke-linecap:round;stroke-linejoin:round;-inkscape-stroke:none"
     d="M 4.75,0.5 A 0.5,0.5 0 0 0 4.25,1 V 2.8339844 H 1 a 0.50005,0.50005 0 0 0 -0.5,0.5 V 10.333984 22 A 0.50005,0.50005 0 0 0 1,22.5 H 22 A 0.50005,0.50005 0 0 0 22.5,22 V 10.333984 3.3339844 a 0.50005,0.50005 0 0 0 -0.5,-0.5 H 18.75 V 1 A 0.5,0.5 0 0 0 18.25,0.5 0.5,0.5 0 0 0 17.75,1 v 1.8339844 h -3.5 V 1 A 0.5,0.5 0 0 0 13.75,0.5 0.5,0.5 0 0 0 13.25,1 V 2.8339844 H 9.75 V 1 A 0.5,0.5 0 0 0 9.25,0.5 0.5,0.5 0 0 0 8.75,1 V 2.8339844 H 5.25 V 1 A 0.5,0.5 0 0 0 4.75,0.5 Z M 1.5,3.8339844 h 2.75 v 1.8320312 a 0.5,0.5 0 0 0 0.5,0.5 0.5,0.5 0 0 0 0.5,-0.5 V 3.8339844 h 3.5 v 1.8320312 a 0.5,0.5 0 0 0 0.5,0.5 0.5,0.5 0 0 0 0.5,-0.5 V 3.8339844 h 3.5 v 1.8320312 a 0.5,0.5 0 0 0 0.5,0.5 0.5,0.5 0 0 0 0.5,-0.5 V 3.8339844 h 3.5 v 1.8320312 a 0.5,0.5 0 0 0 0.5,0.5 0.5,0.5 0 0 0 0.5,-0.5 V 3.8339844 h 2.75 v 6 h -20 z m 0,6.9999996 h 20 V 21.5 h -20 z"
     id="path1" />
</svg>
