<svg width="96" height="76" viewBox="0 0 96 76" fill="none" xmlns="http://www.w3.org/2000/svg">
<g clip-path="url(#clip0_2029_4)">
<path d="M5.1409e-05 0C31.6801 0 63.3601 0 96.0001 0C96.0826 11.0962 96.1651 22.1925 96.2501 33.625C96.2865 37.1205 96.3229 40.6159 96.3604 44.2173C96.3785 48.5066 96.3785 48.5066 96.3818 50.5186C96.3879 51.9151 96.402 53.3115 96.4224 54.7079C96.4518 56.8312 96.4557 58.9532 96.4542 61.0767C96.463 62.2713 96.4719 63.466 96.4811 64.6969C95.8078 69.3201 93.9602 72.4962 90.2315 75.3568C86.9357 76.3068 83.6981 76.2948 80.2974 76.2905C79.1406 76.3006 79.1406 76.3006 77.9604 76.3109C75.4136 76.3299 72.8672 76.3338 70.3204 76.3359C68.5468 76.3424 66.7733 76.3491 64.9998 76.3561C61.2826 76.3681 57.5654 76.3718 53.8482 76.3706C49.0911 76.3704 44.3346 76.3977 39.5777 76.4322C35.9145 76.4544 32.2514 76.4584 28.5881 76.4574C26.8347 76.4597 25.0812 76.4686 23.3278 76.484C20.872 76.5037 18.4174 76.4979 15.9615 76.4858C15.2413 76.4971 14.5211 76.5083 13.779 76.5199C8.73747 76.4573 5.83631 75.2409 2.00005 72C-0.487088 68.6526 -0.242104 65.3818 -0.226999 61.3037C-0.22724 60.6292 -0.227482 59.9547 -0.22773 59.2597C-0.226242 57.0845 -0.211031 54.9096 -0.195261 52.7344C-0.192319 51.3882 -0.19028 50.042 -0.189158 48.6958C-0.178688 43.7138 -0.150765 38.7319 -0.124949 33.75C-0.0836986 22.6125 -0.0424486 11.475 5.1409e-05 0ZM10.0001 6C14.6432 11.4713 14.6432 11.4713 19.5269 16.6404C20.1471 17.2605 20.7673 17.8806 21.4063 18.5195C22.0534 19.1615 22.7005 19.8034 23.3672 20.4648C24.0468 21.143 24.7264 21.8212 25.4266 22.5199C27.5737 24.6615 29.7243 26.7995 31.875 28.9375C33.3414 30.3989 34.8076 31.8604 36.2735 33.3223C39.8464 36.8842 43.4223 40.4429 47 44C50.1301 42.6107 52.2539 40.9947 54.667 38.5759C55.3675 37.8786 56.0679 37.1812 56.7895 36.4628C57.5345 35.7106 58.2794 34.9585 59.0469 34.1836C59.8181 33.4119 60.5893 32.6403 61.3839 31.8452C63.0101 30.216 64.6339 28.5843 66.2554 26.9504C68.7492 24.4384 71.2509 21.9344 73.754 19.4316C75.3313 17.8494 76.9081 16.2668 78.4844 14.6836C79.2375 13.9294 79.9905 13.1753 80.7663 12.3983C81.4542 11.7041 82.142 11.0099 82.8506 10.2947C83.4603 9.68116 84.0701 9.06764 84.6982 8.43553C86.112 7.19952 86.112 7.19952 86.0001 6C60.9201 6 35.8401 6 10.0001 6ZM5.00005 9C4.94933 16.5988 4.91431 24.1977 4.89019 31.7966C4.88013 34.3816 4.86649 36.9666 4.84917 39.5515C4.82491 43.2674 4.81356 46.9832 4.80474 50.6992C4.79442 51.8546 4.78409 53.01 4.77346 54.2004C4.77331 55.2811 4.77316 56.3618 4.773 57.4753C4.76856 58.4235 4.76412 59.3717 4.75954 60.3487C5.12526 64.3803 6.1311 67.131 9.00005 70C11.4831 70.2035 13.8551 70.2832 16.3397 70.2747C17.474 70.2823 17.474 70.2823 18.6313 70.2901C21.1384 70.3041 23.6453 70.3031 26.1524 70.3008C27.8911 70.3047 29.6299 70.309 31.3686 70.3138C35.0162 70.3212 38.6637 70.3209 42.3113 70.3157C46.9902 70.3099 51.6687 70.3268 56.3475 70.35C59.9394 70.3647 63.5312 70.3656 67.1231 70.3625C68.8483 70.363 70.5735 70.3683 72.2987 70.3783C74.7098 70.3906 77.12 70.3839 79.5311 70.3723C80.6042 70.3838 80.6042 70.3838 81.699 70.3955C84.5626 70.3649 86.5196 70.337 88.9044 68.6642C91.0822 65.3563 91.1224 62.4489 91.1136 58.6106C91.1135 57.5097 91.1134 56.4088 91.1133 55.2745C91.1082 54.0869 91.103 52.8993 91.0977 51.6758C91.0963 50.4592 91.0949 49.2427 91.0934 47.9893C91.0878 44.097 91.0753 40.2048 91.0626 36.3125C91.0575 33.6764 91.053 31.0404 91.0489 28.4043C91.0378 21.9362 91.0211 15.4681 91.0001 9C85.6081 13.4979 80.6061 18.2613 75.6602 23.2422C74.8933 24.0106 74.1263 24.7789 73.3361 25.5706C70.9092 28.003 68.4858 30.439 66.0626 32.875C64.4085 34.5341 62.7542 36.1929 61.0997 37.8516C57.0638 41.8984 53.0308 45.9481 49 50C45.6844 48.5552 43.5177 46.7566 40.9817 44.1929C40.2045 43.4122 39.4272 42.6316 38.6263 41.8272C37.3824 40.5631 37.3824 40.5631 36.1133 39.2734C35.2557 38.4106 34.3981 37.5478 33.5145 36.6588C30.7757 33.9023 28.0437 31.1391 25.3126 28.375C22.5698 25.6047 19.8256 22.8358 17.0785 20.0697C15.3685 18.3475 13.6613 16.6226 11.9569 14.8949C11.1891 14.1205 10.4213 13.3462 9.63018 12.5483C8.61236 11.5181 8.61236 11.5181 7.57398 10.4671C6.23675 8.88636 6.23675 8.88636 5.00005 9Z" fill="#131642"/>
</g>
<defs>
<clipPath id="clip0_2029_4">
<rect width="96" height="76" fill="white"/>
</clipPath>
</defs>
</svg>
