<svg width="30" height="23" viewBox="0 0 30 23" fill="none" xmlns="http://www.w3.org/2000/svg">
<path d="M19.047 2.41481L19.047 2.41485L19.5562 2.91231L19.5914 2.94779L19.5915 2.94777L20.4808 2.06448L20.4808 2.06448L20.4814 2.0639C20.57 1.97301 20.7166 1.88303 20.8772 1.81564C21.0377 1.74825 21.2053 1.70625 21.3336 1.70625H28.0003C28.0757 1.70625 28.1479 1.73574 28.201 1.78799L28.236 1.75236L28.201 1.78799C28.254 1.84021 28.2837 1.91087 28.2837 1.98437V8.57903C28.2837 8.70451 28.2411 8.86904 28.1722 9.02731C28.1034 9.18549 28.011 9.33086 27.9166 9.4201L27.9161 9.42067L18.5293 18.5891C18.4722 18.6403 18.3973 18.6684 18.3197 18.6676C18.2419 18.6667 18.1676 18.6369 18.1115 18.5843C18.1114 18.5842 18.1113 18.584 18.1111 18.5839L16.3466 16.8463L16.3466 16.8463L16.3459 16.8457C16.2736 16.7769 16.1769 16.739 16.0766 16.7398C15.9763 16.7407 15.8803 16.7802 15.8091 16.8503C15.738 16.9203 15.6975 17.0152 15.6966 17.1146C15.6957 17.214 15.7345 17.3096 15.8045 17.3809L15.8051 17.3815L17.5704 19.1199L17.5707 19.1202C17.7696 19.3126 18.0364 19.4212 18.3148 19.4234C18.5933 19.4256 18.8618 19.3211 19.0637 19.1319L19.0645 19.1312L28.452 9.962C28.4521 9.96191 28.4522 9.96182 28.4523 9.96173C28.6242 9.79918 28.7733 9.56987 28.8794 9.32461C28.9856 9.07924 29.0504 8.81419 29.0504 8.57903V1.98437C29.0504 1.4133 28.5785 0.95 28.0003 0.95H21.3336C21.0951 0.95 20.8261 1.01367 20.5774 1.11778C20.3289 1.2218 20.0969 1.36778 19.9334 1.53575L19.047 2.41481Z" fill="#141743" stroke="#141743" stroke-width="0.1"/>
<path d="M25.0751 4.28125V4.2812C25.075 4.16129 25.111 4.04397 25.1787 3.9441C25.2464 3.84421 25.3428 3.76621 25.4557 3.72011C25.5686 3.674 25.6929 3.66189 25.8129 3.68535C25.9329 3.70881 26.0429 3.76675 26.1293 3.85172C26.2156 3.93669 26.2743 4.04486 26.298 4.16249C26.3217 4.28012 26.3095 4.40204 26.2628 4.51287C26.2161 4.6237 26.137 4.71853 26.0354 4.78527C25.9337 4.85201 25.8142 4.88762 25.6918 4.8875H25.6918C25.3507 4.8875 25.0751 4.61452 25.0751 4.28125ZM1.24485 13.4339L1.24484 13.4339L1.2441 13.4347C1.05284 13.6331 0.947307 13.8971 0.950052 14.1709C0.952797 14.4448 1.0636 14.7067 1.2588 14.9013L1.25903 14.9015L8.21107 21.7449C8.41067 21.942 8.67807 22.05 8.96355 22.05C9.24017 22.05 9.50182 21.9474 9.70388 21.7568L9.7045 21.7562L19.0913 12.5877C19.0914 12.5876 19.0916 12.5875 19.0917 12.5874C19.2639 12.4248 19.4133 12.1956 19.5197 11.9502C19.6261 11.7048 19.691 11.4395 19.691 11.204V4.60937C19.691 4.0383 19.2192 3.575 18.641 3.575H11.9743C11.7358 3.575 11.4668 3.63867 11.218 3.74277C10.9694 3.84681 10.7372 3.99281 10.5734 4.16077C10.5733 4.16086 10.5732 4.16095 10.5731 4.16104L1.24485 13.4339ZM18.5573 12.0451L18.5568 12.0457L9.17036 21.2137C9.11251 21.2636 9.03789 21.2908 8.96073 21.2899C8.88343 21.2891 8.8093 21.2602 8.75255 21.209L1.80111 14.3675C1.80101 14.3675 1.80092 14.3674 1.80082 14.3673C1.74768 14.313 1.7175 14.2412 1.71613 14.1661C1.71477 14.0913 1.74212 14.0187 1.79291 13.9627L11.1215 4.68946L11.1221 4.6889C11.2107 4.59801 11.3573 4.50803 11.5179 4.44064C11.6783 4.37325 11.846 4.33125 11.9743 4.33125H18.641C18.8024 4.33125 18.9497 4.4612 18.9497 4.60937V11.204C18.9497 11.3286 18.9016 11.4925 18.8263 11.6511C18.7512 11.8092 18.6525 11.9552 18.5573 12.0451ZM27.0751 4.28125C27.0751 3.52905 26.454 2.91875 25.6918 2.91875C24.9296 2.91875 24.3084 3.52905 24.3084 4.28125C24.3084 5.03345 24.9296 5.64375 25.6918 5.64375C26.454 5.64375 27.0751 5.03345 27.0751 4.28125Z" fill="#141743" stroke="#141743" stroke-width="0.1"/>
<path d="M16.3329 5.54375C15.5707 5.54375 14.9495 6.15405 14.9495 6.90625C14.9495 7.65845 15.5707 8.26875 16.3329 8.26875C17.0951 8.26875 17.7162 7.65845 17.7162 6.90625C17.7162 6.15405 17.0951 5.54375 16.3329 5.54375ZM16.7495 7.32542C16.6402 7.43791 16.4911 7.50493 16.3329 7.51245C16.1746 7.50493 16.0255 7.43791 15.9162 7.32542C15.8065 7.21242 15.7453 7.06227 15.7453 6.90625C15.7453 6.75023 15.8065 6.60008 15.9162 6.48708C16.0255 6.37459 16.1746 6.30757 16.3329 6.30005C16.4911 6.30757 16.6402 6.37459 16.7495 6.48708C16.8593 6.60008 16.9204 6.75023 16.9204 6.90625C16.9204 7.06227 16.8593 7.21242 16.7495 7.32542Z" fill="#141743" stroke="#141743" stroke-width="0.1"/>
</svg>
