<svg width="37" height="33" viewBox="0 0 37 33" fill="none" xmlns="http://www.w3.org/2000/svg">
<path d="M36.5 4C36.5 5.93309 34.9326 7.5 33.0008 7.5C31.0672 7.5 29.5 5.93296 29.5 4C29.5 2.06704 31.0672 0.5 33.0008 0.5C34.9326 0.5 36.5 2.06691 36.5 4Z" fill="#263777" stroke="#D3D3D3"/>
<path d="M24.4149 7H1V32H7.51702V23.8667H20.0049L25.7027 32H33L26.7171 23.8292C28.6685 23.5294 30.0733 22.8172 30.9319 21.6928C31.7903 20.5684 32.2197 18.7692 32.2197 16.3705V14.4964C32.2197 13.072 32.0638 11.9477 31.7905 11.0856C31.5172 10.2236 31.0488 9.47383 30.3855 8.79921C29.683 8.16203 28.9027 7.71228 27.966 7.41252C27.0294 7.1502 25.8585 7 24.4149 7ZM23.3612 18.3571H7.51702V12.5097H23.3612C24.2585 12.5097 24.883 12.6595 25.1952 12.922C25.5074 13.1844 25.7027 13.6716 25.7027 14.3838V16.4828C25.7027 17.2323 25.5074 17.7195 25.1952 17.9818C24.883 18.2441 24.2587 18.3567 23.3612 18.3567V18.3571Z" fill="#263777" stroke="#D5D5D5" stroke-linecap="round" stroke-linejoin="round"/>
</svg>
