<svg width="38" height="23" viewBox="0 0 38 23" fill="none" xmlns="http://www.w3.org/2000/svg">
    <path stroke="#D3D3D3"
        d="M37.134 1.55969C37.395 0.66125 37.134 0 35.8783 0H31.7233C30.6651 0 30.1784 0.567812 29.9174 1.20031C29.9174 1.20031 27.8011 6.45437 24.8101 9.86125C23.8436 10.8459 23.3992 11.1622 22.8701 11.1622C22.6091 11.1622 22.207 10.8459 22.207 9.9475V1.55969C22.207 0.481562 21.9107 0 21.036 0H14.5037C13.8406 0 13.4455 0.503125 13.4455 0.970312C13.4455 1.99094 14.9411 2.22812 15.0963 5.10312V11.3419C15.0963 12.7075 14.8564 12.9591 14.3273 12.9591C12.9165 12.9591 9.48806 7.68344 7.45642 1.64594C7.04727 0.474375 6.64517 0 5.57997 0H1.42497C0.239847 0 0 0.567812 0 1.20031C0 2.32156 1.41086 7.89188 6.56757 15.2519C10.003 20.2759 14.8423 23 19.2442 23C21.8896 23 22.2141 22.3962 22.2141 21.3541C22.2141 16.5528 21.9742 16.1 23.3004 16.1C23.9142 16.1 24.9723 16.4163 27.4413 18.8384C30.263 21.7134 30.7286 23 32.3088 23H36.4638C37.6489 23 38.2485 22.3962 37.9029 21.2031C37.1128 18.6947 31.7727 13.5341 31.5328 13.1891C30.9191 12.3841 31.0955 12.0247 31.5328 11.3059C31.5399 11.2987 36.6119 4.025 37.134 1.55969Z"
        fill="#263777" />
</svg>