<svg width="36" height="25" viewBox="0 0 36 25" fill="none" xmlns="http://www.w3.org/2000/svg">
    <path fill-rule="evenodd" clip-rule="evenodd"
        d="M14.283 17.1122V7.12356L24.0084 12.1356L14.283 17.1122ZM35.64 5.39421C35.64 5.39421 35.289 2.94327 34.209 1.86442C32.841 0.449665 31.3056 0.442557 30.6018 0.359022C25.5654 2.38359e-07 18.0072 0 18.0072 0H17.9928C17.9928 0 10.4364 2.38359e-07 5.3982 0.359022C4.6944 0.442557 3.1608 0.447888 1.791 1.86442C0.711 2.94327 0.36 5.39421 0.36 5.39421C0.36 5.39421 0 8.26994 0 11.1474V13.8437C0 16.7194 0.36 19.5969 0.36 19.5969C0.36 19.5969 0.711 22.0461 1.791 23.1249C3.159 24.5414 4.959 24.4952 5.76 24.6445C8.64 24.9165 18 25 18 25C18 25 25.5654 24.9893 30.6018 24.6303C31.3056 24.5468 32.841 24.5414 34.209 23.1249C35.289 22.0461 35.64 19.5969 35.64 19.5969C35.64 19.5969 36 16.7194 36 13.8437V11.1474C36 8.26994 35.64 5.39421 35.64 5.39421Z"
        fill="#263777"
        stroke="#D3D3D3" />
</svg>