<svg width="500" height="119" viewBox="0 0 500 119" fill="none" xmlns="http://www.w3.org/2000/svg">
<path fill-rule="evenodd" clip-rule="evenodd" d="M0 80.7681H33.8106V114.579H0V80.7681ZM81.323 80.7681H115.134V114.579H47.4846V80.7681H81.2952H81.323ZM47.5124 5.82448L57.5807 0.0275879L115.161 33.2835V67.0941H47.5124V5.85222V5.82448ZM0 33.2557L33.8106 13.7293V67.0664H0V33.2557Z" fill="#263777"/>
<path d="M156.735 78.9649V39.7457H156.985L183.917 78.9649H201.169V33.5327H191.489V72.7519H191.211L164.279 33.5327H147.027V78.9649H156.735Z" fill="#263777"/>
<path d="M238.059 71.8365C233.039 71.8365 226.826 71.5591 223.22 71.1708V53.3918C226.826 53.0035 233.039 52.7262 238.059 52.7262C243.079 52.7262 249.348 53.0035 252.953 53.3918V71.1708C249.348 71.5591 243.135 71.8365 238.059 71.8365ZM238.059 79.8523C257.779 79.8523 262.994 76.1634 262.994 62.2675C262.994 48.3715 257.779 44.6826 238.059 44.6826C218.338 44.6826 213.207 48.3715 213.207 62.2675C213.207 76.1634 218.422 79.8523 238.059 79.8523Z" fill="#263777"/>
<path d="M314.722 44.6826C308.093 44.6826 300.493 47.484 291.673 52.2269L289.399 45.5424H271.01V52.8926H282.382V71.6146H271.01V78.9647H312.503V71.6146H291.729V60.7974C301.076 55.7217 306.845 52.7816 315.055 52.7816C315.804 52.7816 316.858 52.7816 317.662 52.8371V44.8213C316.47 44.6826 315.998 44.6826 314.722 44.6826Z" fill="#263777"/>
<path d="M336.718 78.9649V62.2676H366.063V53.5861H336.718V42.2142H376.492V33.5327H326.705V78.9649H336.718Z" fill="#263777"/>
<path d="M413.05 78.965V71.809H400.153V52.6987H413.05V45.5427H378.158V52.6987H391.056V71.809H378.158V78.965H413.05ZM402.955 39.1356V33.7825H388.254V39.1356H402.955Z" fill="#263777"/>
<path d="M457.703 44.6826C450.298 44.6826 440.396 47.0957 432.297 49.9525L430.078 45.5424H423.061V78.9647H432.408V58.1902C440.95 54.9728 451.989 52.6429 459.145 52.6429V78.9647H468.493V55.4443C468.493 47.9 465.026 44.6826 457.675 44.6826" fill="#263777"/>
<path d="M154.377 101.737H163.031V112.72H152.019C152.63 111.805 153.184 110.391 153.517 107.95L154.377 101.737ZM165.361 99.6843H152.352L151.215 107.839C150.855 110.363 150.161 111.777 149.496 112.693H147.055V118.878H149.384V114.745H166.22V118.878H168.55V112.693H165.388V99.6843H165.361Z" fill="#263777"/>
<path d="M186.775 112.887C184.306 112.887 181.949 112.748 179.591 112.36V102.125C181.949 101.709 184.306 101.571 186.775 101.571C189.244 101.571 191.601 101.709 193.959 102.125V112.36C191.601 112.748 189.244 112.887 186.775 112.887ZM186.775 115.023C194.929 115.023 196.538 113.747 196.538 107.229C196.538 100.711 194.929 99.4348 186.775 99.4348C178.62 99.4348 177.012 100.711 177.012 107.229C177.012 113.747 178.62 115.023 186.775 115.023Z" fill="#263777"/>
<path d="M209.824 114.773V101.071H209.879L216.425 111.278H219.31L225.911 101.071H225.939V114.773H228.269V99.7119H224.275L217.923 109.586H217.868L211.571 99.7119H207.494V114.773H209.824Z" fill="#263777"/>
<path d="M247.271 101.071H247.327L251.515 108.976H243.083L247.299 101.071H247.271ZM245.524 99.7119L237.48 114.662V114.773H239.949L241.974 110.973H252.597L254.622 114.773H257.201V114.662L249.074 99.7119H245.552H245.524Z" fill="#263777"/>
<path d="M274.424 114.773V101.737H286.988V114.773H289.318V99.7119H272.094V114.773H274.424Z" fill="#263777"/>
<path d="M310.062 112.887C307.593 112.887 305.236 112.748 302.878 112.36V102.125C305.236 101.709 307.593 101.571 310.062 101.571C312.53 101.571 314.888 101.709 317.246 102.125V112.36C314.888 112.748 312.53 112.887 310.062 112.887ZM310.062 115.023C318.216 115.023 319.825 113.747 319.825 107.229C319.825 100.711 318.216 99.4348 310.062 99.4348C301.907 99.4348 300.299 100.711 300.299 107.229C300.299 113.747 301.907 115.023 310.062 115.023Z" fill="#263777"/>
<path d="M335.031 101.737H343.685V112.72H332.674C333.284 111.805 333.839 110.391 334.171 107.95L335.031 101.737ZM346.015 99.6843H333.007L331.869 107.839C331.509 110.363 330.815 111.777 330.15 112.693H327.709V118.878H330.039V114.745H346.875V118.878H349.205V112.693H346.043V99.6843H346.015Z" fill="#263777"/>
<path d="M380.842 99.8229V99.7119H377.763L370.635 106.036H367.418V99.7119H365.088V114.773H367.418V108.088H370.691L377.985 114.773H381.23V114.662L372.66 106.951L380.842 99.8229Z" fill="#263777"/>
<path d="M392.19 112.721C390.831 112.721 389.417 112.582 388.002 112.443L388.085 114.884C388.778 114.94 389.86 115.023 390.443 115.023C393.216 115.023 394.437 113.719 394.742 110.779L395.685 101.765H404.727V114.801H407.057V99.74H393.549L392.19 112.748V112.721Z" fill="#263777"/>
<path d="M440.513 112.36C438.183 112.748 436.13 112.887 434.05 112.887C431.97 112.887 429.917 112.721 427.587 112.36V102.125C429.917 101.737 431.97 101.571 434.05 101.571C436.13 101.571 438.183 101.737 440.513 102.125V112.36ZM434.05 99.4626C426.949 99.4626 425.174 100.655 425.036 106.23H421.125V99.7122H418.795V114.773H421.125V108.255H425.036C425.202 113.83 426.977 115.023 434.05 115.023C441.539 115.023 443.064 113.691 443.064 107.229C443.064 100.766 441.539 99.4348 434.05 99.4348V99.4626Z" fill="#263777"/>
<path d="M468.519 114.773V99.7119H466.189V107.173H455.177V99.7119H452.848V104.76C452.848 107.95 454.096 109.225 457.84 109.225H466.189V114.773H468.519Z" fill="#263777"/>
<path d="M113.658 10.8172V2.94005L109.747 9.51357H109.026L105.115 2.99553V10.8172H103.645V0H104.921L109.442 7.59975L113.88 0H115.155V10.8172H113.685H113.658ZM96.7107 1.35908H92.9941V0.0277423H101.925V1.35908H98.2084V10.8172H96.683V1.35908H96.7107Z" fill="#263777"/>
<path d="M498.501 44.323V36.4459L494.591 43.0194H493.869L489.959 36.5014V44.323H488.489V33.5059H489.764L494.286 41.1056L498.723 33.5059H499.999V44.323H498.529H498.501ZM481.554 34.8649H477.838V33.5336H486.769V34.8649H483.052V44.323H481.527V34.8649H481.554Z" fill="#263777"/>
</svg>
